# This file uses centimeters as units for non-parametric coordinates.

mtllib sw-ship.mtl
g default
v -0.076571 0.032979 -1.139175
v 0.076571 0.032979 -1.139175
v -0.076571 -0.032979 -1.139175
v 0.076571 -0.032979 -1.139175
v 0.556612 0.032663 -0.010732
v -0.556612 0.032663 -0.010732
v -0.556612 -0.032663 -0.010732
v 0.556612 -0.032663 -0.010732
v -0.076571 -0.016487 -1.139175
v -0.076571 0.016487 -1.139175
v -0.556612 0.016487 -0.010732
v -0.556612 -0.016487 -0.010732
v 0.556612 0.016487 -0.010732
v 0.556612 -0.016487 -0.010732
v 0.076571 0.016487 -1.139175
v 0.076571 -0.016487 -1.139175
v -0.000000 0.032979 -1.196849
v 0.000000 0.032590 0.557675
v 0.000000 0.017243 0.557675
v 0.000000 -0.017243 0.557675
v 0.000000 -0.032590 0.557675
v 0.000000 -0.224072 -0.010732
v -0.000000 -0.032979 -1.196849
v -0.000000 -0.016487 -1.196849
v -0.000000 0.016487 -1.196849
v -0.000000 -0.016487 -1.119947
v -0.000000 0.016487 -1.119947
v 0.043515 0.016487 -1.089190
v 0.043515 -0.016487 -1.089190
v -0.043515 -0.016487 -1.089190
v -0.043515 0.016487 -1.089190
v -0.497767 -0.016487 -0.021677
v -0.497767 0.016487 -0.021677
v -0.035585 0.017243 0.439070
v 0.000000 0.017243 0.480773
v 0.000000 -0.017243 0.480773
v 0.035585 0.017243 0.439070
v 0.497767 -0.016487 -0.021677
v 0.497767 0.016487 -0.021677
v -0.000289 0.251332 0.028815
v -0.177442 0.157396 0.002825
v -0.175851 0.168369 0.009391
v -0.000000 0.157780 -0.373177
v 0.000920 0.165339 -0.375516
v -0.000000 0.156330 0.187195
v -0.000015 0.166988 0.189813
v 0.177316 0.157434 0.002839
v 0.173906 0.165620 0.008626
vt 0.625000 0.750000
vt 0.375000 0.872317
vt 0.625000 0.872317
vt 0.375000 0.687494
vt 0.625000 0.562506
vt 0.125000 0.187494
vt 0.875000 0.062506
vt 0.375000 0.562506
vt 0.752683 0.134571
vt 0.247317 0.250000
vt 0.247317 0.134570
vt 0.125000 0.250000
vt 0.752683 0.250000
vt 0.875000 0.187494
vt 0.875000 0.250000
vt 0.125000 0.000000
vt 0.247317 0.000000
vt 0.125000 0.062506
vt 0.247317 0.115429
vt 0.752683 0.000000
vt 0.752683 0.115430
vt 0.875000 0.000000
vt 0.625000 0.687494
vt 0.375000 0.750000
vt 0.500000 0.134570
vt 0.500000 0.115430
vt 0.500000 0.000000
vt 0.500000 1.000000
vt 0.500000 0.872317
vt 0.500000 0.750000
vt 0.500000 0.687494
vt 0.500000 0.562506
vt 0.500000 0.562506
vt 0.625000 0.562506
vt 0.625000 0.687494
vt 0.500000 0.687494
vt 0.125000 0.062506
vt 0.247317 0.115429
vt 0.247317 0.134570
vt 0.125000 0.187494
vt 0.375000 0.134570
vt 0.500000 0.115430
vt 0.625000 0.134570
vt 0.500000 0.134570
vt 0.752683 0.115430
vt 0.752683 0.134571
vt 0.875000 0.062506
vt 0.875000 0.187494
vt 0.375000 0.562506
vt 0.375000 0.687494
vt 0.559375 0.377616
vt 0.375000 0.377683
vt 0.500000 0.440585
vt 0.375000 0.500000
vt 0.500000 0.250000
vt 0.435689 0.377683
vt 0.500000 0.311559
vt 0.625000 0.377683
vt 0.500000 0.500000
vt 0.564291 0.377683
vt 0.625000 0.500000
vt 0.442254 0.377581
vt 0.500000 0.376341
vt 0.500000 0.317790
vt 0.500000 0.435941
vn 0.000000 -0.947671 0.319248
vn -0.000000 -0.999994 -0.003344
vn 0.306767 -0.951289 -0.030733
vn -0.000000 -0.989237 -0.146324
vn 0.298164 -0.944241 -0.139668
vn 0.000001 0.000000 -1.000000
vn 0.000001 0.000000 -1.000000
vn 0.577206 0.000000 -0.816599
vn 0.577206 0.000000 -0.816599
vn -0.920157 0.000000 -0.391549
vn -0.920157 0.000000 -0.391549
vn -0.999001 0.027576 0.035159
vn -0.999001 0.027577 0.035177
vn -0.709168 0.060168 0.702468
vn -0.000000 0.085341 0.996352
vn -0.000000 0.085341 0.996352
vn 0.709168 0.060169 0.702468
vn 0.999001 0.027577 0.035159
vn 0.999001 0.027578 0.035177
vn 0.920157 0.000000 -0.391549
vn 0.920157 0.000000 -0.391549
vn 0.999424 0.000000 0.033936
vn -0.000000 0.000000 1.000000
vn -0.000000 0.000000 1.000000
vn 0.999428 0.000000 0.033818
vn -0.000000 0.000000 -1.000000
vn -0.000000 0.000000 -1.000000
vn 0.601645 0.000000 -0.798764
vn 0.601645 0.000000 -0.798764
vn -0.920198 0.000000 -0.391454
vn -0.999428 0.000000 0.033818
vn -0.999424 0.000000 0.033936
vn -0.920198 0.000000 -0.391454
vn 0.920198 0.000000 -0.391454
vn 0.920198 0.000000 -0.391454
vn -0.920198 0.000000 -0.391454
vn -0.999424 0.000000 0.033936
vn -0.999428 0.000000 0.033818
vn -0.920198 0.000000 -0.391454
vn 0.000000 0.000000 1.000000
vn 0.000000 0.000000 1.000000
vn 0.999428 0.000000 0.033818
vn 0.999424 0.000000 0.033936
vn 0.920198 0.000000 -0.391454
vn 0.920198 0.000000 -0.391454
vn 0.000000 0.000000 -1.000000
vn 0.000000 0.000000 -1.000000
vn 0.601645 0.000000 -0.798764
vn 0.601645 0.000000 -0.798764
vn -0.306767 -0.951288 -0.030733
vn -0.298164 -0.944241 -0.139668
vn -0.601645 0.000000 -0.798764
vn -0.601645 0.000000 -0.798764
vn -0.577205 0.000000 -0.816599
vn -0.577205 0.000000 -0.816599
vn -0.601644 0.000000 -0.798764
vn -0.601644 0.000000 -0.798764
vn 0.000000 -1.000000 0.000000
vn -0.000000 -1.000000 0.000000
vn -0.000000 -1.000000 0.000000
vn 0.000000 -1.000000 0.000000
vn -0.000000 1.000000 0.000000
vn 0.000000 1.000000 0.000000
vn 0.000000 1.000000 0.000000
vn -0.000000 1.000000 0.000000
vn 0.000000 1.000000 0.000000
vn 0.000336 1.000000 0.000225
vn 0.000338 1.000000 0.000227
vn 0.000000 1.000000 0.000000
vn 0.000489 -1.000000 0.000088
vn 0.000000 -1.000000 0.000000
vn 0.000000 -1.000000 0.000000
vn 0.000493 -1.000000 0.000088
vn -0.000000 1.000000 0.000572
vn -0.000000 1.000000 0.000572
vn -0.000336 1.000000 0.000225
vn -0.000338 1.000000 0.000227
vn -0.001214 -0.999999 0.000218
vn -0.000493 -1.000000 0.000088
vn -0.000489 -1.000000 0.000088
vn -0.000000 -1.000000 0.000218
vn -0.000000 -1.000000 0.000218
vn 0.001214 -0.999999 0.000218
vn -0.885279 0.214088 -0.412853
vn -0.885279 0.214088 -0.412853
vn -0.885279 0.214088 -0.412853
vn -0.885279 0.214088 -0.412853
vn -0.698888 -0.235798 0.675244
vn -0.698888 -0.235798 0.675244
vn -0.698888 -0.235798 0.675244
vn -0.698888 -0.235798 0.675244
vn 0.884070 0.229036 -0.407386
vn 0.884070 0.229036 -0.407386
vn 0.963689 -0.003398 0.267006
vn 0.976885 0.147830 -0.154406
vn 0.709849 -0.175290 0.682194
vn 0.709849 -0.175290 0.682194
vn 0.439820 0.795838 0.416174
vn 0.439820 0.795838 0.416174
vn 0.439820 0.795838 0.416174
vn -0.296857 0.954530 0.027341
vn -0.313394 0.933923 0.171967
vn -0.275612 0.952562 -0.129090
vn -0.307689 0.902488 0.301402
vn -0.307689 0.902488 0.301402
vn 0.313391 0.933927 0.171946
vn 0.307689 0.902488 0.301401
vn 0.307689 0.902488 0.301401
vn 0.296856 0.954531 0.027337
vn 0.273318 0.953369 -0.128006
vn 0.275613 0.952561 -0.129090
vn 0.273318 0.953368 -0.128006
vn -0.401921 0.895397 -0.191634
vn -0.401921 0.895397 -0.191634
vn -0.401921 0.895397 -0.191634
vn -0.425247 0.801425 0.420576
vn -0.425247 0.801425 0.420576
vn -0.425247 0.801425 0.420576
vn 0.415997 0.889724 -0.187982
vn 0.415997 0.889724 -0.187982
vn 0.415997 0.889724 -0.187982
vn -0.273318 0.953369 -0.128006
vn -0.273318 0.953369 -0.128006
s 1
g pCube1
usemtl initialShadingGroup
f 21/28/1 22/29/2 8/3/3
f 22/29/2 23/30/4 4/1/5 8/3/3
s 2
f 26/36/6 27/33/7 28/34/8 29/35/9
s 3
f 31/40/10 30/37/11 32/38/12 33/39/13
f 34/41/14 33/39/13 32/38/12 36/42/15 35/44/16
f 37/43/17 35/44/16 36/42/15 38/45/18 39/46/19
f 39/46/19 38/45/18 29/47/20 28/48/21
s 4
f 5/13/22 18/55/23 19/25/24 13/9/25
s 5
f 25/32/26 17/59/27 2/61/28 15/5/29
s 4
f 10/6/30 11/11/31 6/10/32 1/12/33
f 5/13/22 13/9/25 15/14/34 2/15/35
s 6
f 3/16/36 7/17/37 12/19/38 9/18/39
f 12/19/38 7/17/37 21/27/40 20/26/41
f 14/21/42 20/26/41 21/27/40 8/20/43
f 16/7/44 14/21/42 8/20/43 4/22/45
s 7
f 23/30/46 24/31/47 16/23/48 4/1/49
s 4
f 11/11/31 19/25/24 18/55/23 6/10/32
s 1
f 7/2/50 22/29/2 21/28/1
f 3/24/51 23/30/4 22/29/2 7/2/50
s 7
f 9/4/52 24/31/47 23/30/46 3/24/53
s 2
f 30/50/54 31/49/55 27/33/7 26/36/6
s 5
f 1/54/56 17/59/27 25/32/26 10/8/57
s 8
f 25/32/58 15/5/59 28/34/60 27/33/61
s 9
f 16/23/62 24/31/63 26/36/64 29/35/65
f 9/18/66 12/19/67 32/38/68 30/37/69
s 8
f 11/11/70 10/6/71 31/40/72 33/39/73
s 9
f 32/38/68 12/19/67 20/26/74 36/42/75
f 36/42/75 20/26/74 14/21/76 38/45/77
s 8
f 37/43/78 39/46/79 13/9/80 19/25/81 35/44/82
s 9
f 14/21/76 16/7/62 29/47/65 38/45/77
s 8
f 15/14/59 13/9/80 39/46/79 28/48/60
f 34/41/83 35/44/82 19/25/81 11/11/70 33/39/73
f 10/8/71 25/32/58 27/33/61 31/49/72
s 9
f 24/31/63 9/4/66 30/50/69 26/36/64
s off
f 41/56/84 42/62/85 44/65/86 43/53/87
f 42/62/88 41/56/89 45/57/90 46/64/91
s 11
f 43/53/92 44/65/93 48/51/94 47/60/95
f 46/64/96 45/57/97 47/60/95 48/51/94
s off
f 48/51/98 40/63/99 46/64/100
s 12
f 6/52/101 41/56/102 43/53/103
f 18/55/104 45/57/105 41/56/102 6/52/101
s 13
f 47/60/106 45/57/107 18/55/108 5/58/109
f 17/59/110 43/53/111 5/58/109 2/61/112
s off
f 44/65/113 42/62/114 40/63/115
f 40/63/116 42/62/117 46/64/118
f 44/65/119 40/63/120 48/51/121
s 13
f 5/58/109 43/53/111 47/60/106
s 12
f 6/52/101 43/53/103 17/59/122 1/54/123
